<svg width="480" height="480" viewBox="0 0 480 480" fill="none" xmlns="http://www.w3.org/2000/svg">
<path d="M150 0C199.706 0 240 40.2944 240 90V0H390C439.706 0 480 40.2944 480 90V480H330C280.294 480 240 439.706 240 390V480H90C40.2944 480 0 439.706 0 390V0H150ZM266.508 106.2C257.641 106.2 250.127 106.214 244.822 106.234C242.172 106.245 240.062 106.257 238.607 106.271C237.884 106.277 237.301 106.286 236.888 106.294C236.689 106.298 236.488 106.303 236.316 106.31C236.245 106.312 236.096 106.319 235.929 106.332C235.867 106.337 235.655 106.354 235.392 106.394C235.312 106.406 235.097 106.439 234.815 106.505C234.763 106.509 234.706 106.514 234.646 106.517H234.631L234.615 106.518C231.595 106.684 228.954 106.965 225.853 107.429V107.431C225.102 107.54 223.439 107.85 222.118 108.114L222.111 108.116C213.611 109.822 205.217 112.913 197.394 117.192C194.969 118.516 194.303 118.925 191.188 120.98C184.414 125.428 178.041 131.143 172.729 137.52C163.408 148.701 157.07 161.83 154.208 176.002C153.571 179.142 153.052 182.855 152.714 186.545L152.713 186.555L152.712 186.563C152.625 187.544 152.593 192.181 152.565 200.67C152.537 209.476 152.517 222.955 152.504 242.229C152.491 261.171 152.472 274.663 152.443 283.586C152.429 288.049 152.412 291.359 152.393 293.632C152.383 294.77 152.373 295.634 152.362 296.247C152.354 296.741 152.347 296.973 152.346 297.041C151.801 304.215 149.091 311.264 144.599 317.069L144.592 317.077C143.393 318.631 143.137 318.926 142.087 320.006L142.076 320.017L142.066 320.027C141.744 320.362 141.436 320.678 141.183 320.939C141.06 321.066 140.944 321.186 140.851 321.283C140.807 321.329 140.756 321.38 140.709 321.43C140.662 321.474 140.573 321.557 140.432 321.687C140.187 321.911 139.877 322.193 139.553 322.482C139.229 322.772 138.905 323.057 138.635 323.292C138.499 323.41 138.386 323.508 138.297 323.583C138.229 323.641 138.192 323.671 138.181 323.68L138.163 323.693C133.608 327.317 129.016 329.611 123.369 331.096C121.956 331.465 118.938 331.953 116.949 332.093H116.941L116.934 332.094C116.961 332.092 116.902 332.096 116.697 332.104C116.515 332.11 116.273 332.117 115.973 332.124C115.373 332.138 114.588 332.151 113.669 332.163C111.831 332.187 109.502 332.202 107.134 332.202H91.1992V379.801H107.709C110.62 379.801 112.997 379.788 114.67 379.765C115.499 379.753 116.196 379.739 116.711 379.721C116.956 379.712 117.237 379.7 117.496 379.681C117.608 379.672 117.844 379.653 118.119 379.613C118.216 379.599 118.431 379.565 118.705 379.504C119.005 379.473 119.454 379.436 119.969 379.404L119.968 379.403C130.658 378.767 141.966 375.707 151.896 370.826L151.901 370.823C162.576 365.564 171.828 358.365 179.527 349.298L179.532 349.293C184.413 343.533 188.109 337.896 191.384 331.162L191.39 331.15L191.396 331.14C193.54 326.69 195.449 321.691 196.853 316.756C197.332 315.094 198.165 311.555 198.437 309.983L198.438 309.984C198.483 309.734 198.537 309.419 198.583 309.153C198.631 308.877 198.672 308.645 198.702 308.476C199.013 306.802 199.204 305.281 199.686 301.009L199.685 301.008C199.798 299.993 199.833 297.729 199.861 294.692C199.894 291.298 199.916 286.273 199.936 279.257V279.256C199.95 273.756 199.964 269.658 199.984 266.673C202.512 266.667 205.656 266.66 209.301 266.657C219.346 266.649 233.185 266.653 248.392 266.672L281.785 266.721C289.764 266.737 294.942 266.757 298.378 266.791C301.863 266.826 303.358 266.875 304.116 266.929C304.586 266.962 304.402 266.948 305.233 267.111L305.242 267.112C311.62 268.36 316.948 271.576 320.965 276.564C322.857 278.918 324.478 281.91 325.479 284.915L325.672 285.517C327.216 290.619 327.073 298.041 324.902 304.752C322.29 312.814 317.285 319.714 310.405 324.72L310.403 324.721C305.676 328.163 300.205 330.507 294.777 331.471L294.758 331.475C291.923 331.986 293.824 332.096 275.061 332.152L248.466 332.202L206.151 332.267L200.973 332.274L199.333 337.187L199.205 337.569L199.19 337.615L199.176 337.66C198.526 339.696 197.061 343.35 196.336 344.798C195.515 346.436 193.587 349.647 192.496 351.17L192.495 351.171C189.579 355.243 185.56 359.413 181.375 362.665C180.972 362.977 179.892 363.742 178.695 364.556C178.125 364.943 177.581 365.305 177.147 365.587C176.723 365.862 176.557 365.961 176.569 365.956L176.544 365.97L176.478 366.007C176.409 366.045 175.993 366.273 175.525 366.637C175.402 366.732 173.515 368.084 172.912 370.747C172.53 372.434 172.764 374.222 173.603 375.772C174.345 377.144 175.344 377.939 175.929 378.332C177.006 379.056 178.018 379.302 178.242 379.358C179.212 379.601 180.261 379.622 180.464 379.63C181.497 379.67 183.419 379.694 186.886 379.711C193.909 379.746 207.788 379.756 234.969 379.775H234.971C252.35 379.782 266.244 379.778 275.819 379.764C280.605 379.756 284.321 379.746 286.855 379.733C288.12 379.727 289.105 379.72 289.787 379.712C290.123 379.708 290.413 379.703 290.634 379.697C290.737 379.695 290.872 379.69 291.005 379.684C291.064 379.681 291.19 379.674 291.34 379.661C291.41 379.655 291.56 379.641 291.747 379.614C291.841 379.601 292 379.576 292.195 379.535C292.216 379.531 292.242 379.522 292.272 379.516C292.422 379.501 292.633 379.484 292.86 379.474L292.885 379.473L292.908 379.471C300.431 379.063 307.252 377.714 314.925 375.156L314.926 375.157C325.73 371.575 335.288 366.139 344.081 358.647L344.108 358.624C346.625 356.457 351.71 351.315 353.857 348.75L353.862 348.744L353.867 348.737C358.597 343.065 362.186 337.6 365.339 331.233C369.25 323.351 372.19 313.922 373.415 305.269L373.416 305.27C373.599 304.023 373.781 302.265 374.069 299.389L374.07 299.382C374.226 297.807 374.324 295.482 374.36 293.548C374.379 292.559 374.383 291.581 374.366 290.767C374.358 290.365 374.344 289.942 374.317 289.548C374.309 289.418 374.275 288.839 374.136 288.154C374.126 288.089 374.111 287.978 374.094 287.828C374.058 287.524 374.023 287.156 374 286.821L373.997 286.789L373.995 286.758L373.887 285.495C373.293 279.214 371.88 273.344 369.447 266.796L369.445 266.789L369.442 266.782L368.935 265.443C368.494 264.313 368.152 263.572 367.011 261.127L367.009 261.122C363.479 253.571 357.961 245.967 351.737 239.937L351.729 239.93L351.148 239.375C345.109 233.675 337.763 228.811 330.022 225.404L330.018 225.401L329.284 225.085C321.68 221.849 313.331 219.889 304.931 219.356H304.93C303.087 219.247 282.668 219.201 247.751 219.188H247.748C232.713 219.188 219.032 219.176 209.1 219.157C205.547 219.15 202.476 219.139 199.996 219.131C199.993 216.353 199.998 212.59 200.012 207.574V207.571C200.031 199.115 200.047 194.471 200.082 191.788C200.118 188.99 200.177 188.721 200.179 188.709C200.309 187.95 200.462 186.987 200.539 186.441C200.924 183.772 202.124 179.786 203.601 176.596L203.602 176.597C203.736 176.307 203.863 176.026 203.964 175.799C203.987 175.747 204.01 175.689 204.036 175.63C204.131 175.453 204.263 175.21 204.411 174.938C206.546 171.032 208.597 168.285 211.403 165.471C216.32 160.561 221.659 157.371 228.097 155.434L228.104 155.432C230.421 154.732 231.706 154.462 233.371 154.254L233.37 154.253C234.002 154.176 234.749 154.06 235.27 153.977C235.284 153.976 235.3 153.976 235.315 153.976C235.591 153.966 236.016 153.957 236.622 153.947C237.827 153.928 239.628 153.912 242.122 153.897C247.104 153.869 254.772 153.85 265.801 153.837H265.803C274.19 153.824 281.833 153.802 287.386 153.776C290.16 153.764 292.421 153.75 293.994 153.736C294.778 153.73 295.407 153.722 295.848 153.715C296.062 153.711 296.262 153.708 296.423 153.703C296.493 153.701 296.615 153.696 296.745 153.688C296.794 153.686 296.953 153.677 297.148 153.655C297.224 153.647 297.479 153.619 297.798 153.554C297.939 153.525 298.306 153.447 298.756 153.289C298.987 153.203 299.544 152.958 299.865 152.79C300.195 152.589 300.839 152.077 301.41 151.547L301.455 151.592C301.713 151.335 301.933 151.074 302.121 150.823C302.122 150.822 302.124 150.821 302.125 150.82L302.124 150.819C302.679 150.082 302.954 149.426 303.062 149.156C303.254 148.679 303.356 148.277 303.406 148.06C303.508 147.62 303.551 147.249 303.569 147.079C303.61 146.701 303.629 146.315 303.641 146.015C303.665 145.367 303.68 144.414 303.689 143.066C303.709 140.336 303.708 135.641 303.695 127.715L303.683 113.394L303.677 106.2H266.508ZM183.494 378.582L183.493 378.58C183.512 378.569 183.532 378.559 183.552 378.548C183.521 378.565 183.502 378.578 183.494 378.582ZM111.616 372.592L107.709 372.601C110.43 372.601 112.661 372.587 114.269 372.567C113.516 372.577 112.628 372.587 111.616 372.592ZM119.525 372.218C119.203 372.238 118.891 372.261 118.605 372.284C118.891 372.261 119.202 372.238 119.524 372.218C119.82 372.2 120.116 372.18 120.412 372.158C120.116 372.18 119.82 372.2 119.525 372.218ZM348.338 344.127H348.337C348.611 343.798 348.881 343.47 349.146 343.144H349.147C348.882 343.471 348.612 343.798 348.338 344.127ZM303.927 336.358C303.881 336.376 303.835 336.392 303.789 336.409C304.081 336.299 304.371 336.185 304.661 336.068C304.417 336.167 304.172 336.265 303.927 336.358ZM359.221 327.358C359.111 327.587 359 327.814 358.888 328.039V328.038C359.036 327.74 359.182 327.438 359.327 327.135C359.291 327.209 359.257 327.284 359.221 327.358ZM151.739 319.495L151.673 319.588C151.737 319.496 151.8 319.404 151.863 319.312C151.822 319.373 151.781 319.434 151.739 319.495ZM152.641 318.134C152.536 318.298 152.43 318.46 152.323 318.623C152.443 318.441 152.561 318.257 152.678 318.073L152.641 318.134ZM191.354 308.694H191.354C191.43 308.273 191.545 307.583 191.622 307.162H191.623C191.546 307.583 191.431 308.273 191.354 308.694ZM314.458 262.554L315.123 262.868C314.902 262.761 314.68 262.656 314.457 262.554C314.234 262.451 314.01 262.352 313.784 262.254C314.01 262.352 314.235 262.451 314.458 262.554ZM305.765 259.876C306.05 259.925 306.294 259.981 306.623 260.046C306.761 260.073 306.897 260.101 307.034 260.13C306.898 260.102 306.761 260.074 306.624 260.047C306.294 259.982 306.05 259.925 305.765 259.876ZM305.758 259.875C305.76 259.875 305.762 259.876 305.765 259.876C305.76 259.875 305.756 259.875 305.752 259.874C305.754 259.874 305.756 259.875 305.758 259.875ZM344.595 243.142C344.777 243.302 344.959 243.464 345.139 243.626H345.138C344.886 243.399 344.631 243.174 344.374 242.95C344.447 243.014 344.522 243.077 344.595 243.142ZM207.564 159.17C207.145 159.562 206.729 159.964 206.316 160.376C206.109 160.584 205.904 160.793 205.703 161.001C205.528 161.183 205.354 161.364 205.184 161.546C205.55 161.155 205.927 160.765 206.315 160.375C206.728 159.963 207.145 159.562 207.564 159.17ZM326.751 113.414L326.815 146.549L326.829 153.721L334.001 153.734L367.186 153.799L374.399 153.812V106.2H326.737L326.751 113.414ZM226.022 148.539L225.931 148.566C225.961 148.557 225.991 148.548 226.021 148.539C226.094 148.517 226.166 148.497 226.236 148.476C226.166 148.497 226.094 148.517 226.022 148.539ZM296.487 143.118C296.468 145.722 296.431 146.431 296.368 146.496C296.366 146.499 296.309 146.503 296.202 146.506C296.307 146.503 296.362 146.499 296.367 146.496C296.43 146.433 296.468 145.726 296.487 143.118ZM296.496 127.727C296.5 130.378 296.503 132.665 296.504 134.634C296.503 132.665 296.499 130.378 296.495 127.727L296.483 113.4L296.496 127.727ZM231.736 108.081C231.746 108.073 231.755 108.064 231.765 108.056C231.786 108.038 231.807 108.021 231.828 108.004C231.798 108.029 231.767 108.055 231.736 108.081Z" fill="url(#paint0_linear_86_22)"/>
<defs>
<linearGradient id="paint0_linear_86_22" x1="-90" y1="-98.4" x2="526.8" y2="526.8" gradientUnits="userSpaceOnUse">
<stop offset="0.100932" stop-color="#DB88BF"/>
<stop offset="1" stop-color="#0641FF"/>
</linearGradient>
</defs>
</svg>
